# xmcd CD database file
#
# Track frame offsets:
#	150
#	20115
#	34215
#	46890
#	59392
#	70437
#	87430
#	97920
#	112835
#	123747
#	136137
#	147847
#
# Disc length: 2322 seconds
#
# Revision: 0
# Processed by: cddbd v1.5.1PL0 Copyright (c) Steve Scherf et al.
# Submitted via: CDex 1.51
#
DISCID=a909100c
DTITLE=Freddy Quinn - Wihnachtslieder
DYEAR=1993
DGENRE=Volksmusik
TTITLE0=Süßer die Glocken nie klingen
TTITLE1=Morgen Kinder wird's was geben
TTITLE2=Leise rieselt der Schnee
TTITLE3=Alle Jahre wieder
TTITLE4=Oh, Tannenbaum
TTITLE5=Sankt Niklas war ein Seemann
TTITLE6=Jingle Bells'
TTITLE7=Ihr Kinderlein kommet'
TTITLE8=Am Weihnachtsbaume die Lichter brennen
TTITLE9=Es ist ein Ros entsprungen
TTITLE10=Oh, du fröhliche
TTITLE11=Stille Nacht, heilige Nacht
EXTD=YEAR: 1993
EXTT0=
EXTT1=
EXTT2=
EXTT3=
EXTT4=
EXTT5=
EXTT6=
EXTT7=
EXTT8=
EXTT9=
EXTT10=
EXTT11=
PLAYORDER=
